<svg width="19" height="25" viewBox="0 0 19 25" fill="none" xmlns="http://www.w3.org/2000/svg">
<path d="M17.4167 12.5C17.8565 12.5 18.2303 12.6519 18.5382 12.9557C18.8461 13.2595 19 13.6285 19 14.0625V23.4375C19 23.8715 18.8461 24.2404 18.5382 24.5443C18.2303 24.8481 17.8565 25 17.4167 25H1.58333C1.14352 25 0.769676 24.8481 0.461806 24.5443C0.153935 24.2404 0 23.8715 0 23.4375V14.0625C0 13.6285 0.153935 13.2595 0.461806 12.9557C0.769676 12.6519 1.14352 12.5 1.58333 12.5H2.11111V7.29167C2.11111 5.28429 2.83406 3.56717 4.27995 2.1403C5.72584 0.713433 7.46586 0 9.5 0C11.5341 0 13.2742 0.713433 14.7201 2.1403C16.1659 3.56717 16.8889 5.28429 16.8889 7.29167C16.8889 7.57378 16.7844 7.81792 16.5755 8.02409C16.3666 8.23025 16.1192 8.33333 15.8333 8.33333H14.7778C14.4919 8.33333 14.2445 8.23025 14.0356 8.02409C13.8267 7.81792 13.7222 7.57378 13.7222 7.29167C13.7222 6.14149 13.3099 5.1595 12.4852 4.3457C11.6606 3.5319 10.6655 3.125 9.5 3.125C8.33449 3.125 7.33941 3.5319 6.51476 4.3457C5.6901 5.1595 5.27778 6.14149 5.27778 7.29167V12.5H17.4167Z" fill="#484848"/>
</svg>
